<svg width="778" height="114" viewBox="0 0 778 114" fill="none" xmlns="http://www.w3.org/2000/svg">
<path d="M389 0C245.718 0 112.212 41.8527 0.0391846 114H777.961C665.788 41.8528 532.282 0 389 0Z" fill="#FF59D0"/>
<path d="M349.116 54.41C348.768 53.678 348.264 53.114 347.604 52.718C346.944 52.31 346.176 52.106 345.3 52.106C344.424 52.106 343.632 52.31 342.924 52.718C342.228 53.114 341.676 53.69 341.268 54.446C340.872 55.19 340.674 56.054 340.674 57.038C340.674 58.022 340.872 58.886 341.268 59.63C341.676 60.374 342.228 60.95 342.924 61.358C343.632 61.754 344.424 61.952 345.3 61.952C346.524 61.952 347.532 61.586 348.324 60.854C349.116 60.122 349.578 59.132 349.71 57.884H344.706V56.552H351.456V57.812C351.36 58.844 351.036 59.792 350.484 60.656C349.932 61.508 349.206 62.186 348.306 62.69C347.406 63.182 346.404 63.428 345.3 63.428C344.136 63.428 343.074 63.158 342.114 62.618C341.154 62.066 340.392 61.304 339.828 60.332C339.276 59.36 339 58.262 339 57.038C339 55.814 339.276 54.716 339.828 53.744C340.392 52.76 341.154 51.998 342.114 51.458C343.074 50.906 344.136 50.63 345.3 50.63C346.632 50.63 347.808 50.96 348.828 51.62C349.86 52.28 350.61 53.21 351.078 54.41H349.116ZM362.622 58.01C362.622 58.322 362.604 58.652 362.568 59H354.684C354.744 59.972 355.074 60.734 355.674 61.286C356.286 61.826 357.024 62.096 357.888 62.096C358.596 62.096 359.184 61.934 359.652 61.61C360.132 61.274 360.468 60.83 360.66 60.278H362.424C362.16 61.226 361.632 62 360.84 62.6C360.048 63.188 359.064 63.482 357.888 63.482C356.952 63.482 356.112 63.272 355.368 62.852C354.636 62.432 354.06 61.838 353.64 61.07C353.22 60.29 353.01 59.39 353.01 58.37C353.01 57.35 353.214 56.456 353.622 55.688C354.03 54.92 354.6 54.332 355.332 53.924C356.076 53.504 356.928 53.294 357.888 53.294C358.824 53.294 359.652 53.498 360.372 53.906C361.092 54.314 361.644 54.878 362.028 55.598C362.424 56.306 362.622 57.11 362.622 58.01ZM360.93 57.668C360.93 57.044 360.792 56.51 360.516 56.066C360.24 55.61 359.862 55.268 359.382 55.04C358.914 54.8 358.392 54.68 357.816 54.68C356.988 54.68 356.28 54.944 355.692 55.472C355.116 56 354.786 56.732 354.702 57.668H360.93ZM366.782 54.806V60.62C366.782 61.1 366.884 61.442 367.088 61.646C367.292 61.838 367.646 61.934 368.15 61.934H369.356V63.32H367.88C366.968 63.32 366.284 63.11 365.828 62.69C365.372 62.27 365.144 61.58 365.144 60.62V54.806H363.866V53.456H365.144V50.972H366.782V53.456H369.356V54.806H366.782ZM380.117 63.446C379.289 63.446 378.545 63.302 377.885 63.014C377.237 62.714 376.727 62.306 376.355 61.79C375.983 61.262 375.791 60.656 375.779 59.972H377.525C377.585 60.56 377.825 61.058 378.245 61.466C378.677 61.862 379.301 62.06 380.117 62.06C380.897 62.06 381.509 61.868 381.953 61.484C382.409 61.088 382.637 60.584 382.637 59.972C382.637 59.492 382.505 59.102 382.241 58.802C381.977 58.502 381.647 58.274 381.251 58.118C380.855 57.962 380.321 57.794 379.649 57.614C378.821 57.398 378.155 57.182 377.651 56.966C377.159 56.75 376.733 56.414 376.373 55.958C376.025 55.49 375.851 54.866 375.851 54.086C375.851 53.402 376.025 52.796 376.373 52.268C376.721 51.74 377.207 51.332 377.831 51.044C378.467 50.756 379.193 50.612 380.009 50.612C381.185 50.612 382.145 50.906 382.889 51.494C383.645 52.082 384.071 52.862 384.167 53.834H382.367C382.307 53.354 382.055 52.934 381.611 52.574C381.167 52.202 380.579 52.016 379.847 52.016C379.163 52.016 378.605 52.196 378.173 52.556C377.741 52.904 377.525 53.396 377.525 54.032C377.525 54.488 377.651 54.86 377.903 55.148C378.167 55.436 378.485 55.658 378.857 55.814C379.241 55.958 379.775 56.126 380.459 56.318C381.287 56.546 381.953 56.774 382.457 57.002C382.961 57.218 383.393 57.56 383.753 58.028C384.113 58.484 384.293 59.108 384.293 59.9C384.293 60.512 384.131 61.088 383.807 61.628C383.483 62.168 383.003 62.606 382.367 62.942C381.731 63.278 380.981 63.446 380.117 63.446ZM388.702 54.806V60.62C388.702 61.1 388.804 61.442 389.008 61.646C389.212 61.838 389.566 61.934 390.07 61.934H391.276V63.32H389.8C388.888 63.32 388.204 63.11 387.748 62.69C387.292 62.27 387.064 61.58 387.064 60.62V54.806H385.786V53.456H387.064V50.972H388.702V53.456H391.276V54.806H388.702ZM392.648 58.352C392.648 57.344 392.852 56.462 393.26 55.706C393.668 54.938 394.226 54.344 394.934 53.924C395.654 53.504 396.452 53.294 397.328 53.294C398.192 53.294 398.942 53.48 399.578 53.852C400.214 54.224 400.688 54.692 401 55.256V53.456H402.656V63.32H401V61.484C400.676 62.06 400.19 62.54 399.542 62.924C398.906 63.296 398.162 63.482 397.31 63.482C396.434 63.482 395.642 63.266 394.934 62.834C394.226 62.402 393.668 61.796 393.26 61.016C392.852 60.236 392.648 59.348 392.648 58.352ZM401 58.37C401 57.626 400.85 56.978 400.55 56.426C400.25 55.874 399.842 55.454 399.326 55.166C398.822 54.866 398.264 54.716 397.652 54.716C397.04 54.716 396.482 54.86 395.978 55.148C395.474 55.436 395.072 55.856 394.772 56.408C394.472 56.96 394.322 57.608 394.322 58.352C394.322 59.108 394.472 59.768 394.772 60.332C395.072 60.884 395.474 61.31 395.978 61.61C396.482 61.898 397.04 62.042 397.652 62.042C398.264 62.042 398.822 61.898 399.326 61.61C399.842 61.31 400.25 60.884 400.55 60.332C400.85 59.768 401 59.114 401 58.37ZM407.062 55.058C407.35 54.494 407.758 54.056 408.286 53.744C408.826 53.432 409.48 53.276 410.248 53.276V54.968H409.816C407.98 54.968 407.062 55.964 407.062 57.956V63.32H405.424V53.456H407.062V55.058ZM414.137 54.806V60.62C414.137 61.1 414.239 61.442 414.443 61.646C414.647 61.838 415.001 61.934 415.505 61.934H416.711V63.32H415.235C414.323 63.32 413.639 63.11 413.183 62.69C412.727 62.27 412.499 61.58 412.499 60.62V54.806H411.221V53.456H412.499V50.972H414.137V53.456H416.711V54.806H414.137ZM427.696 58.01C427.696 58.322 427.678 58.652 427.642 59H419.758C419.818 59.972 420.148 60.734 420.748 61.286C421.36 61.826 422.098 62.096 422.962 62.096C423.67 62.096 424.258 61.934 424.726 61.61C425.206 61.274 425.542 60.83 425.734 60.278H427.498C427.234 61.226 426.706 62 425.914 62.6C425.122 63.188 424.138 63.482 422.962 63.482C422.026 63.482 421.186 63.272 420.442 62.852C419.71 62.432 419.134 61.838 418.714 61.07C418.294 60.29 418.084 59.39 418.084 58.37C418.084 57.35 418.288 56.456 418.696 55.688C419.104 54.92 419.674 54.332 420.406 53.924C421.15 53.504 422.002 53.294 422.962 53.294C423.898 53.294 424.726 53.498 425.446 53.906C426.166 54.314 426.718 54.878 427.102 55.598C427.498 56.306 427.696 57.11 427.696 58.01ZM426.004 57.668C426.004 57.044 425.866 56.51 425.59 56.066C425.314 55.61 424.936 55.268 424.456 55.04C423.988 54.8 423.466 54.68 422.89 54.68C422.062 54.68 421.354 54.944 420.766 55.472C420.19 56 419.86 56.732 419.776 57.668H426.004ZM429.246 58.352C429.246 57.344 429.45 56.462 429.858 55.706C430.266 54.938 430.824 54.344 431.532 53.924C432.252 53.504 433.056 53.294 433.944 53.294C434.712 53.294 435.426 53.474 436.086 53.834C436.746 54.182 437.25 54.644 437.598 55.22V50H439.254V63.32H437.598V61.466C437.274 62.054 436.794 62.54 436.158 62.924C435.522 63.296 434.778 63.482 433.926 63.482C433.05 63.482 432.252 63.266 431.532 62.834C430.824 62.402 430.266 61.796 429.858 61.016C429.45 60.236 429.246 59.348 429.246 58.352ZM437.598 58.37C437.598 57.626 437.448 56.978 437.148 56.426C436.848 55.874 436.44 55.454 435.924 55.166C435.42 54.866 434.862 54.716 434.25 54.716C433.638 54.716 433.08 54.86 432.576 55.148C432.072 55.436 431.67 55.856 431.37 56.408C431.07 56.96 430.92 57.608 430.92 58.352C430.92 59.108 431.07 59.768 431.37 60.332C431.67 60.884 432.072 61.31 432.576 61.61C433.08 61.898 433.638 62.042 434.25 62.042C434.862 62.042 435.42 61.898 435.924 61.61C436.44 61.31 436.848 60.884 437.148 60.332C437.448 59.768 437.598 59.114 437.598 58.37Z" fill="white"/>
</svg>
