<svg width="38" height="38" viewBox="0 0 38 38" fill="none" xmlns="http://www.w3.org/2000/svg"> <path d="M33.5 1H4.5C2.567 1 1 2.567 1 4.5V33.5C1 35.433 2.567 37 4.5 37H33.5C35.433 37 37 35.433 37 33.5V4.5C37 2.567 35.433 1 33.5 1Z" stroke="#FF59D0"/> <path d="M26.6238 11.4091C25.1976 10.7455 23.6924 10.2722 22.146 10.0013C22.1319 9.99848 22.1173 10.0003 22.1043 10.0065C22.0913 10.0127 22.0805 10.0229 22.0736 10.0357C21.8811 10.3841 21.6666 10.8386 21.5163 11.1973C19.8493 10.9406 18.1537 10.9406 16.4867 11.1973C16.3194 10.7998 16.1306 10.412 15.9211 10.0357C15.9139 10.0232 15.9031 10.0132 15.8902 10.0071C15.8773 10.0009 15.8628 9.9989 15.8487 10.0013C14.3022 10.2717 12.797 10.7449 11.3709 11.4091C11.3589 11.4143 11.3486 11.423 11.3416 11.4342C8.48901 15.7545 7.70712 19.968 8.09119 24.1284C8.09212 24.1387 8.09512 24.1488 8.10001 24.1579C8.10489 24.167 8.11156 24.175 8.1196 24.1814C9.78018 25.4287 11.6378 26.3808 13.613 26.9971C13.627 27.0012 13.6418 27.0009 13.6555 26.9963C13.6693 26.9916 13.6813 26.9829 13.69 26.9711C14.1135 26.3857 14.4912 25.7677 14.8138 25.1181C14.8183 25.1092 14.8209 25.0995 14.8215 25.0895C14.822 25.0796 14.8204 25.0696 14.8169 25.0603C14.8133 25.051 14.8079 25.0425 14.8009 25.0355C14.7939 25.0285 14.7855 25.0231 14.7762 25.0196C14.1836 24.7897 13.6098 24.5125 13.0603 24.1907C13.0502 24.1848 13.0417 24.1764 13.0356 24.1664C13.0295 24.1564 13.0259 24.145 13.0252 24.1332C13.0245 24.1214 13.0266 24.1096 13.0315 24.0989C13.0363 24.0882 13.0437 24.0789 13.053 24.0717C13.1687 23.984 13.2824 23.8935 13.394 23.8004C13.4037 23.7923 13.4155 23.7872 13.4279 23.7856C13.4404 23.7839 13.4531 23.7858 13.4645 23.7911C17.0651 25.4573 20.9626 25.4573 24.521 23.7911C24.5326 23.7857 24.5455 23.7837 24.5581 23.7853C24.5708 23.7869 24.5827 23.7922 24.5925 23.8004C24.7025 23.8914 24.818 23.9844 24.9345 24.0717C24.9436 24.0787 24.951 24.0879 24.9558 24.0984C24.9607 24.109 24.963 24.1206 24.9624 24.1322C24.9619 24.1438 24.9585 24.1551 24.9527 24.1652C24.9469 24.1752 24.9387 24.1836 24.929 24.1897C24.3807 24.5146 23.8064 24.7919 23.2121 25.0187C23.2028 25.0223 23.1944 25.0278 23.1874 25.0349C23.1804 25.042 23.175 25.0505 23.1714 25.0599C23.1679 25.0693 23.1663 25.0793 23.1668 25.0893C23.1674 25.0994 23.17 25.1092 23.1745 25.1181C23.5045 25.7668 23.8821 26.3838 24.2974 26.9702C24.3059 26.9821 24.318 26.9911 24.3318 26.9957C24.3456 27.0004 24.3605 27.0006 24.3744 26.9962C26.3529 26.3818 28.2135 25.4295 29.8761 24.1804C29.8841 24.1746 29.8909 24.1672 29.896 24.1585C29.9011 24.1499 29.9043 24.1402 29.9054 24.1303C30.3637 19.3193 29.1372 15.1403 26.6522 11.4361C26.6464 11.4236 26.6363 11.4137 26.6238 11.4082V11.4091ZM15.3519 21.5942C14.2675 21.5942 13.3747 20.5859 13.3747 19.3463C13.3747 18.1075 14.251 17.0983 15.3519 17.0983C16.461 17.0983 17.3465 18.1168 17.3291 19.3472C17.3291 20.5859 16.4528 21.5942 15.3519 21.5942V21.5942ZM22.6621 21.5942C21.5777 21.5942 20.6849 20.5859 20.6849 19.3463C20.6849 18.1075 21.5603 17.0983 22.6621 17.0983C23.7712 17.0983 24.6567 18.1168 24.6393 19.3472C24.6393 20.5859 23.7722 21.5942 22.6621 21.5942V21.5942Z" fill="#FF59D0"/> </svg>
