<svg width="38" height="38" viewBox="0 0 38 38" fill="none" xmlns="http://www.w3.org/2000/svg"> <path d="M33.5 1H4.5C2.567 1 1 2.567 1 4.5V33.5C1 35.433 2.567 37 4.5 37H33.5C35.433 37 37 35.433 37 33.5V4.5C37 2.567 35.433 1 33.5 1Z" stroke="#FF59D0"/> <path d="M27.9459 12.3652L25.0786 25.0946C24.8621 25.9928 24.2981 26.2164 23.4967 25.7935L19.1276 22.7627L17.0197 24.6716C16.7862 24.8914 16.5915 25.0748 16.1415 25.0748L16.4557 20.8864L24.5526 13.9988C24.9048 13.7036 24.4759 13.5395 24.0056 13.8352L13.9957 19.769L9.68627 18.4989C8.74906 18.2236 8.7321 17.6167 9.88172 17.1931L26.7372 11.0798C27.5176 10.8045 28.2003 11.2434 27.9459 12.3659V12.3652Z" fill="#FF59D0"/></svg>
