<svg width="38" height="38" viewBox="0 0 38 38" fill="none" xmlns="http://www.w3.org/2000/svg"> <path d="M33.5 1H4.5C2.567 1 1 2.567 1 4.5V33.5C1 35.433 2.567 37 4.5 37H33.5C35.433 37 37 35.433 37 33.5V4.5C37 2.567 35.433 1 33.5 1Z" stroke="#FF59D0"/><path d="M26.1507 14.7383C26.1626 14.9027 26.1626 15.0662 26.1626 15.2297C26.1626 20.2338 22.4503 26 15.666 26C13.5758 26 11.634 25.3788 10 24.3C10.2968 24.3348 10.5825 24.347 10.8912 24.347C12.5518 24.3511 14.1654 23.7814 15.4718 22.7297C14.7019 22.7154 13.9555 22.4548 13.337 21.9843C12.7184 21.5137 12.2585 20.8568 12.0215 20.1051C12.2495 20.1398 12.4785 20.1633 12.7185 20.1633C13.0492 20.1633 13.3816 20.1163 13.6903 20.0346C12.8548 19.8615 12.1034 19.3968 11.5641 18.7196C11.0247 18.0424 10.7306 17.1944 10.7318 16.3198V16.2728C11.2237 16.5538 11.7943 16.7295 12.3988 16.753C11.8924 16.4078 11.4772 15.9393 11.1901 15.3893C10.9031 14.8393 10.7532 14.225 10.7538 13.6012C10.7538 12.8983 10.9361 12.2536 11.2558 11.6916C12.1828 12.8616 13.3391 13.8188 14.6496 14.5011C15.9602 15.1835 17.3958 15.5758 18.8635 15.6526C18.8067 15.3707 18.7719 15.0784 18.7719 14.7852C18.7717 14.2881 18.867 13.7958 19.0523 13.3364C19.2376 12.877 19.5094 12.4597 19.852 12.1081C20.1946 11.7566 20.6014 11.4778 21.0492 11.2876C21.4969 11.0975 21.9768 10.9998 22.4613 11C23.5238 11 24.4828 11.4567 25.1569 12.1953C25.9829 12.0315 26.775 11.7221 27.4981 11.281C27.2227 12.1557 26.646 12.8974 25.8759 13.3672C26.6085 13.2815 27.3244 13.0838 28 12.7808C27.4954 13.5355 26.8702 14.1973 26.1507 14.7383V14.7383Z" fill="#FF59D0"/></svg>
