<svg xmlns="http://www.w3.org/2000/svg" viewBox="0 0 409.57 126.07"><defs><style>.cls-1{fill:#fff;}</style></defs><title>logo</title><g id="Layer_2" data-name="Layer 2"><g id="Layer_1-2" data-name="Layer 1"><path class="cls-1" d="M167.37,126c-3.39-16.25-6.79-32.51-10.27-49.18,8.7-2.83,13.76-1.78,14.34,8.13a39.59,39.59,0,0,0,4.92,16.61C178,95.39,179.89,89.27,181,83c1-5.44,3.25-7.67,9.08-7.72,6.05-.05,7.88,2.73,8.86,7.95a70.84,70.84,0,0,0,6.34,19.14c1.09-5.49,3-11,3.1-16.48.23-9.47,4.46-12.14,14.3-9.35q-5,24.78-10,49.47H198.88l-8-30.28-2,.13Q185,110.95,181.16,126Z"/><path class="cls-1" d="M289.46,126c-.39-15-1-30-.87-45,0-1.86,3.69-5.1,5.87-5.28A177.47,177.47,0,0,1,318,75.63c8.66.46,17.09,1.86,21.11,11.29,3.8,8.93-.12,15.78-6,22,4.57,5.81,9,11.44,13.44,17.08H328.84c-10.37-14.87-13.37-16.27-27.57-12.38V126Zm12.26-25.41c6,0,11.28.83,16.13-.32,2.8-.66,4.85-4.51,7.23-6.93-2.29-2.22-4.3-5.87-6.92-6.38-5.2-1-10.73-.3-16.44-.3Z"/><path class="cls-1" d="M354.44,126c-.48-15.27-1.48-30.57-.85-45.8.1-2.32,7.81-4.33,14-7.52.42,8.68.68,14.06,1,21,11.43-8.27,18.49-24.9,37.57-16.22-4.3,4.09-8.15,8.28-12.53,11.81-4.68,3.75-4.51,7-.83,11.37,5.82,6.92,11.17,14.25,16.71,21.4-.65,1.32-1.23,3.71-2,3.77-4.57.35-9.18.17-13.77.17l-14.95-22.58c-7.68,6.41-12.34,13-10.65,22.58Z"/><path class="cls-1" d="M37.41,0c16.51,9.77,18.37,18.9,6.35,33.77L56.53,48.4c-9,1.74-16.53,3-22.14-5.15-5.12-7.43-12.23-9-21.54-6.48L11.43,49.23H0V0ZM12.33,25.18c6.4,0,12.06.79,17.3-.34,2.5-.54,5.41-4.56,5.84-7.35.26-1.73-3.56-5.54-5.94-5.92-5.55-.9-11.35-.29-17.2-.29Z"/><path class="cls-1" d="M0,74.83c13,1.55,26.13,2.64,36.82,14.92L38,76.11H51.54L49.23,126H37.41C36.27,107.42,26.7,94,11.81,91V126H0Z"/><path class="cls-1" d="M246.14,0V48.81H233.53c-2.13-15.32-8.81-28-25.91-34.76V49H194.94V0h13.78L232.5,11.23c.62-3.79,1.22-7.51,1.82-11.23Z"/><path class="cls-1" d="M114.21,0V50.77l-28.77-8.6V31.7L99.77,31V14.26C83.65,20.58,78.59,33.91,76.12,49.11H64.07C60.56,29.32,73.4,11.06,98.45,0Z"/><path class="cls-1" d="M246.14,126c-16-8.91-21.82-18.24-18.88-30.34A27.08,27.08,0,0,1,253,75.34c11.53-.26,23.27,8,26.21,18.49,3.23,11.48-1.54,22.24-12.79,29-1.58,1-3,2.13-4.53,3.2Zm21.5-24.43c-.28-7.77-6.9-13.64-15-13.29a13.34,13.34,0,0,0-13.1,14,14.28,14.28,0,0,0,13.8,13.67C260.92,116,267.9,109,267.64,101.59Z"/><path class="cls-1" d="M61,126V75.58c11.83,0,23.16-.44,34.4.4,2.09.15,3.79,5.47,7,10.54h-27v27.54h24.8c-.7,4.69-1.24,8.33-1.79,12Z"/><path class="cls-1" d="M159.5,0c.11,11.78.45,23.57.25,35.34-.17,10.14-4.53,14.33-14.38,14.52-7.15.15-14.3,0-22.1,0V37.31c5,0,9.78-.38,14.53.08,8.67.84,12-3,11.45-11.38-.28-3.81-.05-7.66-.05-12.52H128V0Z"/><path class="cls-1" d="M124.05,126c-.49-6.12-1.17-12.23-1.43-18.36-.25-5.85-.05-11.71-.05-18.15L110.31,88v-12h38.87V88.33l-13.31.7v37Z"/><path class="cls-1" d="M269.77,0V48.77H256V0Z"/><path class="cls-1" d="M183.13,0V49H171.31V0Z"/><path class="cls-1" d="M77.09,105.71V95.51H95.91v10.2Z"/></g></g></svg>