<svg width="19" height="10" viewBox="0 0 19 10" fill="none" xmlns="http://www.w3.org/2000/svg">
<path d="M18.6962 2.14661L10.2332 9.72861C10.0377 9.90382 9.77693 10 9.49286 10C9.2145 10 8.9536 9.90382 8.75835 9.72861L0.303226 2.15381C0.107666 1.97847 0 1.74472 0 1.49534C0 1.24595 0.107512 1.01207 0.303226 0.836863L0.925899 0.278999C1.12146 0.103794 1.38251 0.00705719 1.66087 0.00705719C1.93923 0.00705719 2.20013 0.103794 2.39584 0.278999L9.49579 6.63996L16.6036 0.271666C16.7992 0.0965986 17.0601 0 17.3386 0C17.6169 0 17.8777 0.0965986 18.0734 0.271666L18.6962 0.829805C19.1013 1.19281 19.1013 1.78361 18.6962 2.14661Z" fill="white"/>
</svg>
